<svg xmlns="http://www.w3.org/2000/svg" width="330" height="330" fill="none" xmlns:v="https://vecta.io/nano"><g clip-path="url(#E)"><path d="M325.461 4.536H4.532v320.928h320.929V4.536z" fill="#ed1c24"/><mask id="A" maskUnits="userSpaceOnUse" x="0" y="0" width="330" height="330"><path d="M330 0H0V330H330V0Z" fill="#fff"/></mask><g mask="url(#A)"><path d="M325.352 4.644H4.639v320.713h320.713V4.644z" stroke="#fff" stroke-width="5.547"/><path d="M78.54 231.815a20.81 20.81 0 0 1-7.459 11.582c-3.729 2.901-8.335 4.447-13.06 4.383-2.824.099-5.638-.37-8.277-1.381a21.08 21.08 0 0 1-11.846-11.407 21.08 21.08 0 0 1-1.692-8.219c-.007-2.825.553-5.623 1.649-8.227s2.704-4.962 4.728-6.932 4.425-3.514 7.058-4.538 5.445-1.508 8.269-1.424a20.77 20.77 0 0 1 13.189 4.419c3.758 2.946 6.385 7.097 7.44 11.753H67.675c-.709-2.047-2.033-3.825-3.79-5.092s-3.863-1.959-6.03-1.984c-6.966 0-10.856 6.092-10.856 11.852 0 6.141 4.166 12.064 10.912 12.064 2.121-.06 4.177-.742 5.913-1.962a10.82 10.82 0 0 0 3.851-4.896l10.865.009z" fill="#fff"/></g><path d="M87.959 232.973h8.295l-4.069-13.555h-.166l-4.06 13.555zm-2.796 8.037l-2.094 5.736H72.197l15.918-39.653h7.981l15.753 39.653h-10.986l-1.933-5.736H85.163z" fill="#fff"/><mask id="B" maskUnits="userSpaceOnUse" x="0" y="0" width="330" height="330"><path d="M330 0H0V330H330V0Z" fill="#fff"/></mask><g mask="url(#B)"><path d="M120.061 226.821h3.675c6.089 0 6.805-3.836 6.805-5.807 0-3.674-2.691-5.49-6.697-5.49h-3.783v11.297zm-9.927-20.402h12.838c7.127 0 9.864.874 12.508 2.915a14.05 14.05 0 0 1 3.753 4.973c.864 1.917 1.286 4.004 1.235 6.107a12.33 12.33 0 0 1-2.635 8.291c-1.857 2.352-4.507 3.947-7.454 4.488l11.022 13.827h-11.854l-9.38-13.107h-.11v13.107h-9.923v-40.601zm49.536 18.759h4.215c1.975 0 6.47 0 6.47-4.881 0-4.776-4.605-4.776-6.854-4.776h-3.831v9.657zm-9.928-18.757h13.277c7.511 0 10.314 1.152 12.504 2.957a13.81 13.81 0 0 1 3.592 4.847 13.82 13.82 0 0 1 1.184 5.915 14.63 14.63 0 0 1-1.056 5.755 14.64 14.64 0 0 1-3.224 4.883c-2.796 2.365-5.536 3.509-11.847 3.509h-4.502v12.732h-9.928v-40.598z" fill="#fff"/></g><path d="M190.085 232.972h8.295l-4.067-13.555h-.166l-4.062 13.555zm-2.785 8.038l-2.094 5.735H174.33l15.918-39.652h7.986l15.755 39.652h-10.986l-1.926-5.735H187.3z" fill="#fff"/><mask id="C" maskUnits="userSpaceOnUse" x="0" y="0" width="330" height="330"><path d="M330 0H0V330H330V0Z" fill="#fff"/></mask><g mask="url(#C)"><path d="M222.976 226.822h3.675c6.089 0 6.805-3.836 6.805-5.807 0-3.674-2.691-5.49-6.697-5.49h-3.783v11.297zm-9.927-20.402h12.838c7.131 0 9.864.874 12.508 2.915a14.05 14.05 0 0 1 3.757 4.972c.864 1.917 1.286 4.005 1.236 6.108a12.31 12.31 0 0 1-10.089 12.779l11.012 13.827h-11.844l-9.381-13.107h-.11v13.107h-9.927V206.42z" fill="#fff"/></g><path d="M249.377 215.985h-7.824v-8.889h25.718v8.892h-7.766v30.753h-10.128v-30.756z" fill="#fff"/><mask id="D" maskUnits="userSpaceOnUse" x="0" y="0" width="330" height="330"><path d="M330 0H0V330H330V0Z" fill="#fff"/></mask><g mask="url(#D)"><path d="M283.092 218.27c-.224-1.37-.547-3.948-3.728-3.948a3.37 3.37 0 0 0-1.307.182c-.419.146-.806.374-1.137.669a3.38 3.38 0 0 0-.794 1.054 3.36 3.36 0 0 0-.329 1.278c0 2.41 1.096 2.901 8.394 6.197 7.567 3.397 9.488 6.908 9.488 11.625 0 5.928-3.405 12.45-14.151 12.45-11.746 0-14.652-7.677-14.652-12.889v-1.31h10.313c0 4.708 2.915 5.538 4.224 5.538a3.91 3.91 0 0 0 1.504-.285 3.92 3.92 0 0 0 1.28-.841c.367-.361.66-.792.86-1.267a3.9 3.9 0 0 0 .309-1.499c0-2.691-1.704-3.347-7.957-5.98-2.852-1.157-9.928-4.002-9.928-11.631s7.399-11.955 14.208-11.955a14.47 14.47 0 0 1 10.972 4.603c1.817 2.269 2.771 5.11 2.691 8.015l-10.26-.006zm-124.899-88.261c.157 2.069.157 3.825.157 6.213 0 39.504-30.268 63.242-62.916 63.242a61.63 61.63 0 0 1-23.925-4.428 61.65 61.65 0 0 1-20.347-13.341 61.64 61.64 0 0 1-18.332-44.043c0-35.2 28.355-60.682 63.077-60.682 28.194 0 52.41 18.95 58.941 41.73h-33.772c-2.501-4.69-6.248-8.599-10.829-11.296a28.88 28.88 0 0 0-15.131-3.99c-14.815 0-32.177 10.986-32.177 34.238 0 24.698 17.519 35.368 32.33 35.368 14.977 0 25.01-7.488 28.203-18.956h-35.2v-24.055h69.922z" fill="#fff"/><path d="M201.048 113.607c-.634-3.982-1.596-11.471-10.828-11.471-5.256 0-10.356 3.664-10.356 9.237 0 7.009 3.186 8.442 24.373 17.999 21.971 9.881 27.552 20.071 27.552 33.772 0 17.207-9.865 36.159-41.099 36.159-34.078 0-42.524-22.301-42.524-37.442v-3.816h29.944c0 13.697 8.446 16.085 12.266 16.085 1.496.013 2.98-.269 4.367-.83s2.649-1.39 3.714-2.44 1.913-2.3 2.494-3.679a11.34 11.34 0 0 0 .893-4.353c0-7.811-4.932-9.715-23.092-17.365-8.296-3.34-28.837-11.629-28.837-33.771S171.42 76.97 191.168 76.97c11.625 0 24.214 4.293 31.861 13.374 7.004 8.6 7.482 16.569 7.8 23.261l-29.781.003z" fill="#fff"/></g><path d="M232.505 80.22h62.862v25.828h-34.702v19.602h33.455v25.826h-33.455v43.883h-28.16V80.22z" fill="#fff"/></g><defs><clipPath id="E"><path fill="#fff" d="M0 0h330v330H0z"/></clipPath></defs></svg>